<svg width="240" height="94" viewBox="0 0 240 94" fill="none" xmlns="http://www.w3.org/2000/svg">
<g clip-path="url(#clip0_860_9626)">
<path d="M234.226 62.8779L239.006 64.6193C237.53 68.5768 235.413 72.2494 232.719 75.5421C230.89 77.79 228.805 79.848 226.528 81.6526L223.352 77.7267C225.341 76.1753 227.169 74.3707 228.773 72.4077C231.115 69.5266 232.943 66.3289 234.258 62.8779H234.226Z" fill="#E6007E"/>
<path d="M236.119 31.2494C237.787 34.0672 239.07 37.1066 239.968 40.241L235.06 41.6024C234.29 38.848 233.136 36.2201 231.692 33.7506L236.087 31.2178L236.119 31.2494Z" fill="#A48A7B"/>
<path d="M208.115 12.1895C213.216 13.0126 218.027 14.7856 222.422 17.4134L219.759 21.6876C215.942 19.3764 211.74 17.8567 207.281 17.1285L208.083 12.1895H208.115Z" fill="#006633"/>
<path d="M185.662 14.9443L187.715 19.5351C186.111 20.2316 184.571 21.0548 183.063 21.973C182.229 22.5112 181.395 23.0811 180.594 23.6826L177.514 19.6934C178.412 18.9969 179.375 18.3637 180.337 17.7305C182.037 16.654 183.833 15.7358 185.662 14.9443Z" fill="#E6007E"/>
<path d="M163.24 40.6523L168.148 41.9504C167.859 43.0585 167.602 44.23 167.378 45.4014L162.374 44.5782C162.598 43.2485 162.887 41.9504 163.24 40.6523Z" fill="#662483"/>
<path d="M170.746 66.5186C171.965 68.8614 173.472 71.0777 175.204 73.1039L171.323 76.365C169.334 74.0538 167.602 71.5209 166.223 68.8298L170.746 66.5502V66.5186Z" fill="#E6007E"/>
<path d="M180.144 77.79C182.582 79.6897 185.277 81.2727 188.132 82.4758L186.143 87.0982C182.871 85.7368 179.759 83.9005 176.969 81.7159L180.144 77.79Z" fill="#006633"/>
<path d="M203.753 16.7801L203.464 21.7825C199.808 21.5609 196.247 22.0041 192.783 23.0806L191.243 18.2998C195.285 17.0334 199.487 16.5268 203.753 16.7801Z" fill="#A48A7B"/>
<path d="M174.531 62.4668C175.589 64.873 176.937 67.0892 178.573 69.1155L174.595 72.2499C172.67 69.8754 171.099 67.2792 169.848 64.4614L174.499 62.4668H174.531Z" fill="#36A9E1"/>
<path d="M189.896 77.6953C191.307 78.2969 192.783 78.8034 194.29 79.1834L193.039 84.0591C191.275 83.6158 189.543 83.0459 187.875 82.3177L189.896 77.727V77.6953Z" fill="#00A19A"/>
<path d="M220.144 73.7061L223.32 77.632C216.616 82.9193 208.212 85.5471 199.615 85.0405L199.904 80.0382C207.217 80.4814 214.403 78.2335 220.144 73.7061Z" fill="#36A9E1"/>
<path d="M226.624 53.9814L231.66 54.583C231.5 55.9444 231.243 57.2741 230.89 58.5722L225.982 57.2741C226.271 56.1977 226.496 55.1212 226.624 53.9814Z" fill="#006633"/>
<path d="M222.743 29.5078C223.513 30.236 224.218 31.0275 224.924 31.819L221.011 35.0484C220.433 34.3835 219.824 33.7187 219.182 33.0854L222.743 29.5078Z" fill="#A48A7B"/>
<path d="M203.464 21.1491L203.176 26.1515C201.026 26.0248 198.877 26.1515 196.76 26.5631L195.766 21.624C198.3 21.1175 200.866 20.9592 203.464 21.1175V21.1491Z" fill="#36A9E1"/>
<path d="M184.411 26.4365L187.33 30.5524C185.245 31.9771 183.416 33.6868 181.877 35.6497L177.867 32.5787C179.727 30.2358 181.941 28.1779 184.411 26.4365Z" fill="#006633"/>
<path d="M182.839 67.3418C185.726 70.5712 189.447 73.009 193.553 74.4021L191.917 79.1512C186.977 77.4732 182.518 74.5604 179.022 70.6661L182.839 67.3418Z" fill="#E6007E"/>
<path d="M198.3 75.4785C198.91 75.5735 199.519 75.6052 200.161 75.6685L199.872 80.6708C199.134 80.6392 198.364 80.5442 197.626 80.4492L198.3 75.4785Z" fill="#E6007E"/>
<path d="M221.973 65.5371L226.079 68.5132C224.828 70.2229 223.384 71.7742 221.78 73.1673L218.412 69.4313C219.728 68.2599 220.946 66.9618 221.973 65.5371Z" fill="#006633"/>
<path d="M203.368 25.8665C205.646 25.9931 207.891 26.4364 210.072 27.1645C211.837 27.7661 213.537 28.5576 215.14 29.5074L212.478 33.7816C211.195 33.0217 209.848 32.3885 208.436 31.882C206.351 31.1854 204.234 30.8055 202.021 30.8055V25.7715C202.502 25.7715 202.951 25.7715 203.368 25.8031V25.8665Z" fill="#E94E1B"/>
<path d="M189.19 29.1279L191.724 33.4971C190.249 34.3203 188.869 35.3334 187.683 36.5048L184.154 32.8955C185.662 31.4391 187.362 30.1727 189.222 29.1279H189.19Z" fill="#A48A7B"/>
<path d="M176.873 45.9395L181.844 46.9526C181.331 49.4854 181.299 52.0816 181.78 54.6778L176.776 55.5959C176.167 52.3982 176.199 49.1372 176.873 45.9711V45.9395Z" fill="#E94E1B"/>
<path d="M185.694 63.2895C186.335 64.081 187.009 64.8408 187.747 65.5374C188.164 65.949 188.613 66.3289 189.062 66.6771L185.886 70.603C185.309 70.1598 184.731 69.6532 184.218 69.1467C183.288 68.2918 182.422 67.342 181.652 66.3289L185.662 63.2578L185.694 63.2895Z" fill="#36A9E1"/>
<path d="M205.582 70.7617L206.512 75.7008C205.646 75.8591 204.78 75.9857 203.946 76.049L203.497 71.0467C204.202 70.9833 204.876 70.8884 205.582 70.7617Z" fill="#00A19A"/>
<path d="M218.412 62.7197L222.55 65.6642C221.395 67.2472 220.08 68.6719 218.605 69.97L215.269 66.2024C216.456 65.1892 217.514 64.0178 218.444 62.7514L218.412 62.7197Z" fill="#E6007E"/>
<path d="M221.973 54.1396L227.009 54.8995C226.656 57.1157 226.015 59.3003 225.052 61.3582L220.433 59.3003C221.203 57.654 221.716 55.9126 222.005 54.1396H221.973Z" fill="#E7C90B"/>
<path d="M197.755 29.3174L198.685 34.2564C195.638 34.8263 192.847 36.156 190.537 38.1507C188.484 39.9236 186.848 42.2032 185.822 44.736L181.107 42.8681C182.422 39.607 184.539 36.6626 187.201 34.3514C190.184 31.7869 193.841 30.0456 197.755 29.3174Z" fill="#36A9E1"/>
<path d="M184.924 54.0762C185.309 56.1341 186.079 58.0654 187.169 59.8384L182.839 62.4662C181.395 60.155 180.433 57.6538 179.92 54.9943L184.924 54.0762Z" fill="#E6007E"/>
<path d="M215.525 61.2949L219.567 64.3343C218.348 65.8857 216.937 67.2787 215.365 68.4818L212.286 64.4926C213.505 63.5745 214.595 62.498 215.525 61.2949Z" fill="#E94E1B"/>
<path d="M224.154 51.1639C224.154 52.3353 224.058 53.5068 223.833 54.6149L218.829 53.7601C218.99 52.9052 219.054 52.0187 219.054 51.1006H224.122L224.154 51.1639Z" fill="#A48A7B"/>
<path d="M215.397 33.4971C219.792 36.8214 222.775 41.6022 223.769 46.9528L218.765 47.8709C217.995 43.7234 215.686 40.0508 212.286 37.4863L215.365 33.4971H215.397Z" fill="#E6007E"/>
<path d="M202.149 31.6611L202.085 36.6952C201.444 36.6952 200.77 36.6952 200.129 36.7901L199.519 31.8194C200.417 31.7245 201.283 31.6611 202.181 31.6928L202.149 31.6611Z" fill="#006633"/>
<path d="M221.107 47.459C221.203 47.9339 221.267 48.3771 221.299 48.852L216.263 49.4219C216.231 49.0737 216.167 48.6937 216.103 48.3455L221.107 47.459Z" fill="#00A19A"/>
<path d="M209.238 33.085C210.521 33.5915 211.74 34.2564 212.863 35.0163L209.976 39.1638C209.142 38.5939 208.244 38.119 207.281 37.7391L209.206 33.085H209.238Z" fill="#A48A7B"/>
<path d="M225.95 19.6611C228.581 21.6557 230.954 23.967 232.975 26.5315L228.966 29.6342C227.201 27.3863 225.116 25.3917 222.839 23.6504L225.95 19.6611Z" fill="#36A9E1"/>
<path d="M203.881 11.5563L203.593 16.5586C199.134 16.3054 194.675 16.9069 190.409 18.3633L188.773 13.6142C193.681 11.9679 198.749 11.2713 203.881 11.5563Z" fill="#E7C90B"/>
<path d="M172.991 23.5238L176.648 27.0065C175.429 28.2413 174.306 29.6027 173.312 30.9957C172.735 31.8189 172.189 32.6421 171.676 33.4969L167.281 30.9641C167.859 29.9826 168.468 29.0328 169.142 28.083C170.297 26.4683 171.58 24.9169 172.959 23.4922L172.991 23.5238Z" fill="#00A19A"/>
<path d="M167.827 58.5088C168.083 59.6486 168.436 60.7567 168.821 61.8965L164.01 63.5111C163.561 62.2447 163.208 60.9466 162.887 59.6486L167.827 58.5088Z" fill="#006633"/>
<path d="M188.677 82.6025C191.564 83.774 194.611 84.5338 197.691 84.8504L197.113 89.8528C193.585 89.4412 190.088 88.5864 186.784 87.2566L188.677 82.6025Z" fill="#E6007E"/>
<path d="M223.448 77.4736L226.656 81.3679C223.063 84.249 218.99 86.4652 214.563 87.9533L212.927 83.2042C216.776 81.9061 220.337 79.9748 223.48 77.4736H223.448Z" fill="#E7C90B"/>
<path d="M209.591 17.477C214.98 18.7434 220.016 21.2762 224.218 24.7905C228.901 28.7481 232.43 33.9088 234.451 39.671L229.639 41.2857C227.939 36.3466 224.924 31.9458 220.914 28.5898C217.322 25.5821 213.023 23.3975 208.436 22.321L209.623 17.4453L209.591 17.477Z" fill="#E6007E"/>
<path d="M190.441 18.4268L192.077 23.1758C188.613 24.3473 185.469 26.0886 182.71 28.3682L179.471 24.5056C182.71 21.8144 186.431 19.7882 190.441 18.4268Z" fill="#662483"/>
<path d="M169.302 38.5629L174.05 40.3676C172.318 44.8633 171.708 49.7391 172.35 54.4565L167.314 55.0897C166.576 49.5174 167.314 43.8186 169.335 38.5312L169.302 38.5629Z" fill="#A48A7B"/>
<path d="M180.979 71.6475C182.839 73.4521 184.956 75.0035 187.266 76.2699L184.796 80.6707C182.101 79.1827 179.599 77.3464 177.418 75.2568L180.979 71.6791V71.6475Z" fill="#E7C90B"/>
<path d="M205.678 79.6895L206.383 84.6601C204.587 84.9134 202.759 85.0084 200.93 84.9768L201.027 79.9744C202.598 79.9744 204.138 79.9111 205.646 79.6895H205.678Z" fill="#E7C90B"/>
<path d="M230.826 42.9633C231.179 44.293 231.468 45.5911 231.628 46.9209L226.592 47.5541C226.464 46.446 226.239 45.3695 225.918 44.2614L230.826 42.9316V42.9633Z" fill="#E7C90B"/>
<path d="M212.895 23.1123C213.889 23.4922 214.852 23.9671 215.814 24.442L213.44 28.8745C212.67 28.4629 211.836 28.083 211.002 27.7664L212.895 23.1123Z" fill="#006633"/>
<path d="M191.885 22.5742L193.521 27.3233C191.468 28.0198 189.543 28.938 187.747 30.1094L184.956 25.9302C187.105 24.5372 189.415 23.3974 191.885 22.5742Z" fill="#E94E1B"/>
<path d="M176.263 34.6055L180.529 37.3283C179.15 39.4179 178.124 41.6974 177.45 44.1036L172.542 42.7422C173.376 39.8611 174.627 37.1383 176.263 34.6055Z" fill="#00A19A"/>
<path d="M171.484 49.0102L176.552 49.2951C176.359 52.5245 176.809 55.6905 177.867 58.7933L173.056 60.408C171.772 56.7037 171.227 52.8728 171.484 48.9785V49.0102Z" fill="#E7C90B"/>
<path d="M209.784 74.2441L211.452 78.9932C210.746 79.2465 210.008 79.4365 209.302 79.6264L207.987 74.7824C208.597 74.6241 209.174 74.4341 209.784 74.2441Z" fill="#E94E1B"/>
<path d="M203.336 25.6768C204.202 25.7401 205.036 25.8034 205.902 25.9618L205.1 30.9008C203.625 30.6792 202.117 30.5842 200.61 30.6792C198.428 30.8058 196.279 31.2807 194.258 32.0722L192.366 27.4181C194.9 26.405 197.562 25.8034 200.321 25.6451C201.315 25.5818 202.342 25.5818 203.368 25.6451L203.336 25.6768Z" fill="#E7C90B"/>
<path d="M181.748 35.3018L185.758 38.4045C184.731 39.7026 183.833 41.1589 183.16 42.7103L178.509 40.7157C179.343 38.7844 180.465 36.9798 181.748 35.3334V35.3018Z" fill="#E6007E"/>
<path d="M191.66 68.2285C192.558 68.7351 193.488 69.1783 194.451 69.5266C194.996 69.7482 195.573 69.9382 196.151 70.0965L194.707 74.9089C194.002 74.7189 193.296 74.4656 192.622 74.2124C191.435 73.7691 190.249 73.1992 189.158 72.566L191.692 68.2285H191.66Z" fill="#662483"/>
<path d="M212.895 67.6904L215.654 71.9013C214.916 72.3762 214.178 72.7878 213.408 73.1994L211.099 68.7352C211.708 68.4186 212.318 68.0704 212.895 67.6904Z" fill="#662483"/>
<path d="M226.624 44.9902C227.137 47.1748 227.362 49.4227 227.298 51.7023L222.197 51.5123C222.262 49.676 222.101 47.8713 221.652 46.1617L226.592 44.9902H226.624Z" fill="#662483"/>
<path d="M217.225 30.7109C219.599 32.4839 221.62 34.6368 223.256 37.1064L218.99 39.8292C217.706 37.8345 216.071 36.1249 214.178 34.7002L217.257 30.7109H217.225Z" fill="#E7C90B"/>
<path d="M187.362 59.9971C188.516 61.7701 189.96 63.2898 191.66 64.4929L188.645 68.5454C186.464 66.9624 184.571 64.9994 183.095 62.7199L187.362 59.9971Z" fill="#006633"/>
<path d="M208.083 66.6143L209.944 71.3C206.544 72.5981 202.791 73.0413 199.166 72.6298L199.775 67.6591C202.598 68.0073 205.453 67.659 208.083 66.6459V66.6143Z" fill="#E6007E"/>
<path d="M218.476 55.2158L223.384 56.5139C222.871 58.4135 222.101 60.2182 221.107 61.8962L216.712 59.3633C217.482 58.0653 218.091 56.6722 218.476 55.2158Z" fill="#36A9E1"/>
<path d="M222.55 42.584C222.999 43.6604 223.352 44.7686 223.609 45.9083L218.637 47.0165C218.444 46.1616 218.188 45.3068 217.835 44.4836L222.55 42.6156V42.584Z" fill="#E7C90B"/>
<path d="M194.675 32.8008L196.536 37.4865C195.926 37.7082 195.349 37.9931 194.771 38.3097L192.302 33.9406C193.071 33.4973 193.873 33.149 194.707 32.8324L194.675 32.8008Z" fill="#A48A7B"/>
<path d="M218.284 40.3037C218.541 40.7153 218.797 41.1269 219.022 41.5385L214.563 43.9447C214.371 43.6281 214.21 43.3115 213.986 43.0265L218.252 40.3037H218.284Z" fill="#E94E1B"/>
<path d="M48.6925 43.5961C48.6925 48.5034 47.9227 52.7776 46.383 56.3869C44.8433 59.9962 42.63 63.0356 39.8072 65.4734C36.9523 67.9113 33.5522 69.6843 29.5426 70.8557C25.5329 72.0272 21.1063 72.6287 16.2627 72.6287C13.9531 72.6287 11.3228 72.5337 8.40383 72.3438C5.48483 72.1538 2.69413 71.7739 0.0317383 71.1723V16.1147C2.69413 15.5132 5.48483 15.1333 8.46799 14.975C11.4511 14.8167 14.0815 14.7217 16.4231 14.7217C21.2346 14.7217 25.5971 15.2916 29.5746 16.3997C33.5522 17.5078 36.9523 19.2491 39.8072 21.6237C42.662 23.9982 44.8433 26.9743 46.383 30.6152C47.9227 34.2245 48.6925 38.562 48.6925 43.5644V43.5961ZM10.4247 63.4472C11.0341 63.5105 11.8361 63.5422 12.8305 63.5738C13.8248 63.5738 15.1721 63.6055 16.8722 63.6055C23.897 63.6055 29.1256 61.8325 32.5578 58.3182C36.0221 54.8039 37.7222 49.8965 37.7222 43.5644C37.7222 37.2323 36.0221 32.1983 32.6861 28.7789C29.318 25.3596 24.0895 23.6183 17.0325 23.6183C13.9531 23.6183 11.7398 23.7133 10.3926 23.8716V63.4155L10.4247 63.4472Z" fill="white"/>
<path d="M98.7971 50.53C98.7971 53.9177 98.2839 56.9888 97.3216 59.7749C96.3272 62.561 94.9158 64.9356 93.0874 66.8985C91.259 68.8615 89.0778 70.3812 86.5116 71.4893C83.9455 72.5657 81.1227 73.1356 78.0112 73.1356C74.8998 73.1356 72.1091 72.5974 69.575 71.4893C67.0409 70.4128 64.8597 68.8615 63.0313 66.8985C61.2029 64.9356 59.7915 62.561 58.765 59.7749C57.7386 56.9888 57.2253 53.9177 57.2253 50.53C57.2253 47.1424 57.7386 44.103 58.765 41.3485C59.7915 38.594 61.235 36.2512 63.0634 34.2882C64.9238 32.3253 67.105 30.8056 69.6391 29.7608C72.1732 28.6843 74.9639 28.1777 78.0112 28.1777C81.0585 28.1777 83.8492 28.716 86.4154 29.7608C88.9816 30.8372 91.1628 32.3253 92.9912 34.2882C94.8196 36.2512 96.2309 38.594 97.2574 41.3485C98.2839 44.103 98.7971 47.174 98.7971 50.53ZM88.5325 50.53C88.5325 46.2875 87.6022 42.9315 85.7739 40.4303C83.9134 37.9608 81.3472 36.7261 78.0433 36.7261C74.7394 36.7261 72.1411 37.9608 70.3127 40.4303C68.4523 42.8999 67.5541 46.2875 67.5541 50.53C67.5541 54.7725 68.4844 58.2552 70.3127 60.7564C72.1732 63.2576 74.7394 64.524 78.0433 64.524C81.3472 64.524 83.9455 63.2576 85.7739 60.7564C87.6343 58.2552 88.5325 54.8359 88.5325 50.53Z" fill="white"/>
<path d="M124.202 70.4446C121.219 70.3813 118.749 70.0647 116.792 69.4631C114.835 68.8616 113.264 68.0067 112.109 66.8986C110.954 65.7905 110.12 64.3974 109.671 62.7194C109.19 61.0731 108.965 59.1735 108.965 57.0522V1.64635L118.973 0V55.1842C118.973 56.3873 119.07 57.4005 119.262 58.2236C119.455 59.0468 119.807 59.7433 120.289 60.3132C120.77 60.8831 121.475 61.3264 122.309 61.6113C123.175 61.8963 124.266 62.1495 125.581 62.3078L124.17 70.4762L124.202 70.4446Z" fill="white"/>
<path d="M172.734 52.9359C172.734 56.1969 172.317 59.2047 171.451 61.9275C170.585 64.6503 169.366 66.9931 167.762 68.9561C166.159 70.919 164.17 72.4387 161.764 73.5469C159.358 74.6233 156.632 75.1932 153.616 75.1932C151.564 75.1932 149.703 74.9399 147.971 74.465C146.239 73.9901 144.859 73.4202 143.737 72.8187V91.72L133.729 94.0312V32.8948C135.782 32.3566 138.284 31.8183 141.267 31.3434C144.25 30.8685 147.394 30.6152 150.697 30.6152C154.001 30.6152 157.177 31.1218 159.872 32.1666C162.566 33.2114 164.876 34.6994 166.8 36.6307C168.693 38.562 170.168 40.9049 171.195 43.6594C172.221 46.4138 172.734 49.5165 172.734 52.9359ZM162.47 53.0942C162.47 48.6934 161.475 45.2424 159.455 42.8045C157.434 40.3667 154.194 39.1319 149.735 39.1319C148.805 39.1319 147.811 39.1636 146.784 39.2585C145.758 39.3535 144.763 39.5118 143.769 39.7968V64.2387C144.667 64.8402 145.822 65.4101 147.297 65.9167C148.773 66.4232 150.313 66.7082 151.981 66.7082C155.637 66.7082 158.3 65.4734 159.968 63.0356C161.636 60.5977 162.502 57.2734 162.502 53.1575L162.47 53.0942Z" fill="white"/>
<path d="M222.229 50.53C222.229 53.9177 221.716 56.9888 220.754 59.7749C219.759 62.561 218.348 64.9356 216.52 66.8985C214.691 68.8615 212.51 70.3812 209.944 71.4893C207.378 72.5657 204.555 73.1356 201.443 73.1356C198.332 73.1356 195.541 72.5974 193.007 71.4893C190.473 70.3812 188.292 68.8615 186.463 66.8985C184.635 64.9356 183.224 62.561 182.197 59.7749C181.171 56.9888 180.657 53.9177 180.657 50.53C180.657 47.1424 181.171 44.103 182.197 41.3485C183.224 38.594 184.667 36.2512 186.495 34.2882C188.356 32.3253 190.537 30.8056 193.071 29.7608C195.605 28.6843 198.396 28.1777 201.443 28.1777C204.491 28.1777 207.281 28.716 209.848 29.7608C212.414 30.8372 214.595 32.3253 216.423 34.2882C218.252 36.2512 219.663 38.594 220.69 41.3485C221.716 44.103 222.229 47.174 222.229 50.53ZM211.965 50.53C211.965 46.2875 211.034 42.9315 209.206 40.4303C207.346 37.9608 204.779 36.7261 201.475 36.7261C198.172 36.7261 195.573 37.9608 193.745 40.4303C191.884 42.8999 190.986 46.2875 190.986 50.53C190.986 54.7725 191.916 58.2552 193.745 60.7564C195.605 63.2576 198.172 64.524 201.475 64.524C204.779 64.524 207.378 63.2576 209.206 60.7564C211.066 58.2552 211.965 54.8359 211.965 50.53Z" fill="white"/>
</g>
<defs>
<clipPath id="clip0_860_9626">
<rect width="240" height="94" fill="white"/>
</clipPath>
</defs>
</svg>
