<?xml version="1.0" encoding="utf-8"?>
<!-- Generator: Adobe Illustrator 24.0.1, SVG Export Plug-In . SVG Version: 6.00 Build 0)  -->
<svg version="1.1" id="Layer_1" xmlns="http://www.w3.org/2000/svg" xmlns:xlink="http://www.w3.org/1999/xlink" x="0px" y="0px"
	 viewBox="0 0 526 104" style="enable-background:new 0 0 526 104;" xml:space="preserve">
<style type="text/css">
	.st0{fill:#4F4F51;}
	.st1{fill-rule:evenodd;clip-rule:evenodd;fill:#4F4F51;}
	.st2{fill-rule:evenodd;clip-rule:evenodd;fill:#4ABA74;}
</style>
<g>
	<g>
		<path class="st0" d="M178.51,76.35c0,1.57-0.63,2.9-1.89,4c-1.26,1.09-2.71,1.64-4.33,1.64c-1.07,0-2.08-0.29-3.03-0.88
			c-0.95-0.59-1.68-1.47-2.19-2.65l-4.46-9.93h-28.52l-4.46,9.93c-0.5,1.18-1.22,2.06-2.15,2.65c-0.93,0.59-1.95,0.88-3.07,0.88
			c-1.63,0-3.09-0.55-4.37-1.64c-1.29-1.09-1.94-2.43-1.94-4c0-0.78,0.22-1.68,0.67-2.69l22.72-47.7c0.62-1.35,1.54-2.37,2.78-3.07
			c1.23-0.7,2.55-1.05,3.95-1.05c1.46,0,2.8,0.37,4.04,1.09c1.23,0.73,2.19,1.74,2.86,3.03l22.72,47.7
			C178.28,74.67,178.51,75.57,178.51,76.35z M138.54,58.6h19.6l-9.76-21.87L138.54,58.6z"/>
	</g>
	<g>
		<path class="st0" d="M231.27,80.85c-3.81-1.04-6.93-2.51-9.34-4.42c-0.84-0.62-1.44-1.27-1.81-1.98c-0.37-0.7-0.55-1.58-0.55-2.65
			c0-1.4,0.43-2.64,1.3-3.7c0.87-1.06,1.86-1.6,2.99-1.6c0.62,0,1.22,0.1,1.81,0.29c0.59,0.2,1.3,0.55,2.15,1.05
			c2.41,1.51,4.85,2.62,7.32,3.32c2.47,0.7,5.19,1.05,8.16,1.05c3.7,0,6.53-0.62,8.5-1.85c1.96-1.23,2.94-3,2.94-5.3
			c0-1.74-0.91-3.14-2.73-4.21c-1.82-1.06-5.06-2.07-9.72-3.03c-5.22-1.06-9.38-2.36-12.49-3.87c-3.11-1.51-5.38-3.39-6.81-5.64
			c-1.43-2.24-2.15-4.96-2.15-8.16c0-3.53,1.02-6.72,3.07-9.55c2.05-2.83,4.88-5.05,8.5-6.65c3.62-1.6,7.7-2.4,12.24-2.4
			c7.96,0,14.53,1.99,19.69,5.97c0.84,0.67,1.44,1.36,1.81,2.06c0.36,0.7,0.55,1.56,0.55,2.57c0,1.4-0.44,2.64-1.3,3.7
			c-0.87,1.07-1.87,1.6-2.99,1.6c-0.62,0-1.19-0.08-1.72-0.25c-0.53-0.17-1.28-0.53-2.23-1.09c-2.3-1.46-4.42-2.55-6.35-3.28
			c-1.93-0.73-4.39-1.09-7.36-1.09c-3.42,0-6.11,0.66-8.08,1.98c-1.96,1.32-2.94,3.13-2.94,5.43c0,1.35,0.38,2.45,1.14,3.32
			c0.76,0.87,2.02,1.64,3.79,2.31c1.77,0.67,4.28,1.37,7.53,2.1c7.63,1.68,13.11,3.84,16.45,6.48c3.34,2.64,5.01,6.25,5.01,10.85
			c0,3.59-1,6.76-2.99,9.51c-1.99,2.75-4.8,4.88-8.41,6.39c-3.62,1.51-7.81,2.27-12.58,2.27C239.2,82.41,235.08,81.89,231.27,80.85z
			"/>
	</g>
	<g>
		<path class="st0" d="M322.56,80.85c-3.82-1.04-6.93-2.51-9.34-4.42c-0.84-0.62-1.44-1.27-1.81-1.98c-0.37-0.7-0.55-1.58-0.55-2.65
			c0-1.4,0.43-2.64,1.3-3.7c0.87-1.06,1.86-1.6,2.99-1.6c0.62,0,1.22,0.1,1.81,0.29c0.59,0.2,1.3,0.55,2.15,1.05
			c2.41,1.51,4.85,2.62,7.32,3.32c2.47,0.7,5.19,1.05,8.16,1.05c3.7,0,6.53-0.62,8.5-1.85c1.96-1.23,2.94-3,2.94-5.3
			c0-1.74-0.91-3.14-2.73-4.21c-1.82-1.06-5.06-2.07-9.72-3.03c-5.22-1.06-9.38-2.36-12.49-3.87c-3.11-1.51-5.39-3.39-6.82-5.64
			c-1.43-2.24-2.15-4.96-2.15-8.16c0-3.53,1.02-6.72,3.07-9.55c2.05-2.83,4.88-5.05,8.5-6.65c3.62-1.6,7.7-2.4,12.24-2.4
			c7.96,0,14.53,1.99,19.69,5.97c0.84,0.67,1.44,1.36,1.81,2.06c0.36,0.7,0.55,1.56,0.55,2.57c0,1.4-0.44,2.64-1.3,3.7
			c-0.87,1.07-1.87,1.6-2.99,1.6c-0.62,0-1.19-0.08-1.73-0.25c-0.53-0.17-1.28-0.53-2.23-1.09c-2.3-1.46-4.42-2.55-6.35-3.28
			c-1.94-0.73-4.39-1.09-7.36-1.09c-3.42,0-6.11,0.66-8.08,1.98c-1.96,1.32-2.94,3.13-2.94,5.43c0,1.35,0.38,2.45,1.14,3.32
			c0.76,0.87,2.02,1.64,3.79,2.31c1.77,0.67,4.28,1.37,7.53,2.1c7.63,1.68,13.11,3.84,16.45,6.48c3.34,2.64,5.01,6.25,5.01,10.85
			c0,3.59-1,6.76-2.99,9.51c-1.99,2.75-4.8,4.88-8.41,6.39c-3.62,1.51-7.81,2.27-12.58,2.27C330.5,82.41,326.38,81.89,322.56,80.85z
			"/>
	</g>
	<g>
		<path class="st0" d="M406.64,80.39c-1.18-1.18-1.77-2.78-1.77-4.79v-47.2c0-1.96,0.59-3.53,1.77-4.71
			c1.18-1.18,2.78-1.77,4.8-1.77s3.62,0.59,4.8,1.77c1.18,1.18,1.77,2.75,1.77,4.71v47.2c0,2.02-0.59,3.62-1.77,4.79
			c-1.18,1.18-2.78,1.77-4.8,1.77S407.82,81.57,406.64,80.39z"/>
	</g>
	<g>
		<path class="st0" d="M478.2,78.66c-4.35-2.5-7.7-6.03-10.05-10.6c-2.36-4.57-3.53-9.94-3.53-16.11c0-6.17,1.18-11.54,3.53-16.11
			c2.36-4.57,5.71-8.09,10.05-10.56c4.35-2.47,9.46-3.7,15.35-3.7c5.89,0,11.01,1.23,15.35,3.7c4.35,2.47,7.7,5.99,10.05,10.56
			c2.36,4.57,3.53,9.94,3.53,16.11c0,6.17-1.18,11.54-3.53,16.11c-2.36,4.57-5.71,8.11-10.05,10.6c-4.35,2.5-9.46,3.74-15.35,3.74
			C487.67,82.41,482.55,81.16,478.2,78.66z M505.21,67.01c2.83-3.48,4.25-8.5,4.25-15.06s-1.4-11.57-4.21-15.02
			c-2.81-3.45-6.7-5.17-11.69-5.17c-4.99,0-8.88,1.72-11.65,5.17c-2.78,3.45-4.16,8.46-4.16,15.02s1.4,11.58,4.21,15.06
			c2.8,3.48,6.67,5.22,11.61,5.22C498.49,72.23,502.38,70.49,505.21,67.01z"/>
	</g>
	<path class="st1" d="M16.3,78.44c0,3.53-2.87,6.4-6.4,6.4c-3.53,0-6.4-2.87-6.4-6.4c0-28.55,0-24.33,0-52.89
		c0-3.53,2.87-6.4,6.4-6.4c3.53,0,6.4,2.87,6.4,6.4C16.3,54.11,16.3,49.89,16.3,78.44"/>
	<path class="st2" d="M44.5,52.23l11.94,11.94l0.02,0.02l9.47,9.47l0.01,0.01L82.57,90.3c2.5,2.5,2.5,6.55,0,9.05
		c-2.5,2.5-6.56,2.5-9.05,0c-10.73-10.73-21.46-21.46-32.19-32.2L30.69,56.53c-2.5-2.5-2.5-6.55,0-9.05L73.52,4.64
		c2.5-2.5,6.55-2.5,9.05,0c2.5,2.5,2.5,6.55,0,9.05L44.5,51.77C44.38,51.89,44.38,52.11,44.5,52.23"/>
</g>
</svg>
